# xmcd CD database file
#
# Track frame offsets:
#	182
#	21237
#	34337
#	47750
#	66800
#	87000
#	99875
#	119550
#	132912
#
# Disc length: 2055 seconds
#
# Revision: 3
# Processed by: cddbd v1.5.2PL0 Copyright (c) Steve Scherf et al.
# Submitted via: CDex 1.51
#
DISCID=73080509
DTITLE=Waters, Muddy - Muddy Waters At Newport
DYEAR=1960
DGENRE=Blues
TTITLE0=I got my brand on you
TTITLE1=I'm your hoochie coochie man
TTITLE2=Baby, please don't go
TTITLE3=Soon forgotten
TTITLE4=Tiger in your tank
TTITLE5=I feel so good
TTITLE6=I've got my mojo working
TTITLE7=I've got my mojo working, Part 2
TTITLE8=Goodby newport blues
EXTD=YEAR: 1960
EXTT0=
EXTT1=
EXTT2=
EXTT3=
EXTT4=
EXTT5=
EXTT6=
EXTT7=
EXTT8=
PLAYORDER=
